<svg id="eTty9ap0ZGK1" xmlns="http://www.w3.org/2000/svg" xmlns:xlink="http://www.w3.org/1999/xlink" viewBox="0 0 46.110140 47.812870" shape-rendering="geometricPrecision" text-rendering="geometricPrecision"><style><![CDATA[#eTty9ap0ZGK4_ts {animation: eTty9ap0ZGK4_ts__ts 2000ms linear infinite normal forwards}@keyframes eTty9ap0ZGK4_ts__ts { 0% {transform: translate(22.156170px,25.542073px) scale(1,1)} 33.500000% {transform: translate(22.156170px,25.542073px) scale(1,1);animation-timing-function: cubic-bezier(0.420000,0,0.580000,1)} 35% {transform: translate(22.156170px,25.542073px) scale(1.100000,1.100000)} 55% {transform: translate(22.156170px,25.542073px) scale(1.100000,1.100000);animation-timing-function: cubic-bezier(0.420000,0,0.580000,1)} 56.500000% {transform: translate(22.156170px,25.542073px) scale(1,1)} 100% {transform: translate(22.156170px,25.542073px) scale(1,1)}} #eTty9ap0ZGK5 {animation: eTty9ap0ZGK5_f_p 2000ms linear infinite normal forwards}@keyframes eTty9ap0ZGK5_f_p { 0% {fill: rgb(221,221,221)} 33.500000% {fill: rgb(221,221,221)} 35% {fill: rgb(255,255,255)} 55% {fill: rgb(255,255,255)} 56.500000% {fill: rgb(221,221,221)} 100% {fill: rgb(221,221,221)}} #eTty9ap0ZGK6_ts {animation: eTty9ap0ZGK6_ts__ts 2000ms linear infinite normal forwards}@keyframes eTty9ap0ZGK6_ts__ts { 0% {transform: translate(19.599560px,24.746409px) scale(1,1)} 25% {transform: translate(19.599560px,24.746409px) scale(1,1)} 35% {transform: translate(19.599560px,24.746409px) scale(1,1.650000)} 55% {transform: translate(19.599560px,24.746409px) scale(1,1.650000)} 65% {transform: translate(19.599560px,24.746409px) scale(1,1)} 100% {transform: translate(19.599560px,24.746409px) scale(1,1)}} #eTty9ap0ZGK9 {animation: eTty9ap0ZGK9_c_o 2000ms linear infinite normal forwards}@keyframes eTty9ap0ZGK9_c_o { 0% {opacity: 0} 25% {opacity: 0} 35% {opacity: 1} 55% {opacity: 1} 65% {opacity: 0} 100% {opacity: 0}}]]></style><g id="eTty9ap0ZGK2"><rect id="eTty9ap0ZGK3" width="46.110100" height="47.812900" rx="0" ry="0" fill="rgb(9,4,58)" stroke="none" stroke-width="1"/></g><g id="eTty9ap0ZGK4_ts" transform="translate(22.156170,25.542073) scale(1,1)"><g id="eTty9ap0ZGK4" transform="translate(-22.156170,-25.542073)"><path id="eTty9ap0ZGK5" d="M18.454770,49.667730C18.338575,49.682126,18.222091,49.643300,18.137770,49.562070C17.698203,49.394497,17.405187,48.975903,17.398190,48.505530L19.300000,34.136570L14.228600,34.136570C13.892263,34.153539,13.571587,33.993201,13.383360,33.713950C13.157063,33.495810,13.075035,33.167687,13.172060,32.868720L17.820840,11.420930C17.912180,10.914666,18.363414,10.553676,18.877380,10.575690L31.872840,10.892690C32.232367,10.892853,32.560379,11.097861,32.718070,11.420960C32.876554,11.755310,32.876554,12.143150,32.718070,12.477500L25.850570,26.740780L31.555890,26.740780C31.943349,26.738761,32.303797,26.939009,32.506780,27.269050C32.718080,27.589536,32.718080,28.005104,32.506780,28.325590L19.405660,49.139460C19.202674,49.469498,18.842228,49.669745,18.454770,49.667730Z" transform="matrix(1 0 0 1 -0.82826000000000 -4.58064000000000)" fill="rgb(221,221,221)" stroke="none" stroke-width="1"/></g></g><g id="eTty9ap0ZGK6_ts" transform="translate(19.599560,24.746409) scale(1,1)"><g id="eTty9ap0ZGK6" transform="translate(-19.599560,-24.746409)"><g id="eTty9ap0ZGK7"><path id="eTty9ap0ZGK8" d="M18.718360,29.462660C19.850828,29.281847,21.004812,29.281847,22.137280,29.462660C22.077876,29.655044,21.980682,29.833640,21.851390,29.987990C21.689546,30.179896,21.494074,30.340692,21.274560,30.462490C21.023354,30.557629,20.757756,30.609209,20.489200,30.615010C20.179466,30.623556,19.871028,30.571753,19.581080,30.462490C19.344221,30.336594,19.135613,30.163586,18.968080,29.954100C18.853439,29.808235,18.768590,29.641255,18.718360,29.462660Z" transform="matrix(1 0 0 1 -0.82826000000000 -4.58064000000000)" fill="rgb(0,0,0)" stroke="none" stroke-width="1"/></g></g></g><g id="eTty9ap0ZGK9" opacity="0"><ellipse id="eTty9ap0ZGK10" rx="0.675420" ry="0.437040" transform="matrix(1 0 0 1 19.56450000000000 26.47290000000000)" fill="rgb(255,179,230)" stroke="none" stroke-width="1"/></g><g id="eTty9ap0ZGK11"><circle id="eTty9ap0ZGK12" r="0.862720" transform="matrix(1 0 0 1 17.89010000000000 21.77230000000000)" fill="rgb(5,0,0)" stroke="none" stroke-width="1"/><circle id="eTty9ap0ZGK13" r="0.862720" transform="matrix(1 0 0 1 21.30900000000000 21.77230000000000)" fill="rgb(5,0,0)" stroke="none" stroke-width="1"/></g></svg>